<?xml version="1.0" standalone="no"?>
<!DOCTYPE svg PUBLIC "-//W3C//DTD SVG 20010904//EN"
 "http://www.w3.org/TR/2001/REC-SVG-20010904/DTD/svg10.dtd">
<svg version="1.0" xmlns="http://www.w3.org/2000/svg"
 width="613.000000pt" height="613.000000pt" viewBox="0 0 613.000000 613.000000"
 preserveAspectRatio="xMidYMid meet">
<metadata>
Created by potrace 1.11, written by Peter Selinger 2001-2013
</metadata>
<g transform="translate(0.000000,613.000000) scale(0.100000,-0.100000)"
fill="#000000" stroke="none">
<path d="M4075 5282 c-245 -26 -530 -135 -734 -280 -100 -71 -240 -202 -308
-289 -37 -47 -43 -51 -55 -36 -25 30 -173 148 -238 190 -118 75 -316 166 -410
188 -207 49 -290 60 -455 58 -164 -1 -299 -23 -461 -78 -746 -249 -1181 -1002
-1028 -1775 21 -106 75 -263 125 -364 89 -181 290 -403 579 -640 52 -43 106
-87 119 -99 133 -111 915 -655 971 -675 8 -3 22 -11 31 -19 35 -30 693 -423
708 -423 6 0 11 -3 11 -7 0 -5 10 -13 23 -19 22 -11 38 -19 223 -124 l102 -58
148 115 c129 100 294 230 359 284 100 83 275 228 295 245 14 12 77 65 140 120
386 330 798 724 1023 978 323 365 480 638 513 891 3 28 8 52 9 55 5 8 18 177
18 220 -2 193 -41 396 -110 569 -99 251 -235 440 -449 627 -64 55 -226 156
-324 202 -224 105 -434 152 -670 149 -69 -1 -138 -3 -155 -5z m-1991 -1144
c294 -74 493 -338 482 -638 -5 -112 -9 -133 -43 -220 -70 -176 -214 -312 -395
-374 -69 -23 -94 -27 -189 -30 -262 -9 -512 157 -609 404 -48 121 -58 283 -24
399 17 61 68 176 87 197 7 7 30 35 52 62 143 177 405 259 639 200z"/>
</g>
</svg>
